<?xml version="1.0" standalone="no"?>
<!DOCTYPE svg PUBLIC "-//W3C//DTD SVG 20010904//EN"
 "http://www.w3.org/TR/2001/REC-SVG-20010904/DTD/svg10.dtd">
<svg version="1.0" xmlns="http://www.w3.org/2000/svg"
 width="222.000000pt" height="222.000000pt" viewBox="0 0 222.000000 222.000000"
 preserveAspectRatio="xMidYMid meet">
<metadata>
Created by potrace 1.14, written by Peter Selinger 2001-2017
</metadata>
<g transform="translate(0.000000,222.000000) scale(0.100000,-0.100000)"
fill="#000000" stroke="none">
<path d="M1030 2085 c-352 -69 -646 -325 -758 -660 -71 -211 -65 -500 15 -683
71 -164 125 -243 248 -364 121 -119 335 -227 505 -256 89 -14 320 -8 400 12
236 58 424 181 572 375 43 55 125 201 114 201 -2 0 -21 -24 -43 -53 -170 -223
-447 -353 -732 -342 -120 4 -138 7 -236 36 -190 56 -358 175 -464 329 -110
158 -152 302 -146 490 2 52 6 104 8 115 71 310 285 544 583 638 104 33 130 37
254 42 212 8 426 -62 590 -193 l55 -45 -35 39 c-147 162 -327 267 -536 312
-108 23 -295 26 -394 7z"/>
<path d="M1290 1817 c-3 -3 -24 -7 -47 -11 -65 -8 -194 -62 -259 -107 -126
-88 -220 -210 -272 -354 -35 -99 -40 -281 -11 -381 58 -198 187 -353 364 -439
99 -48 174 -66 295 -71 l105 -5 -81 29 c-224 79 -380 234 -450 447 -34 103
-39 264 -11 365 68 247 256 431 508 494 54 14 83 25 72 28 -25 7 -207 10 -213
5z"/>
<path d="M1432 1525 c0 -16 2 -22 5 -12 2 9 2 23 0 30 -3 6 -5 -1 -5 -18z"/>
<path d="M1432 1465 c0 -16 2 -22 5 -12 2 9 2 23 0 30 -3 6 -5 -1 -5 -18z"/>
<path d="M1431 1414 c0 -11 3 -14 6 -6 3 7 2 16 -1 19 -3 4 -6 -2 -5 -13z"/>
<path d="M1432 1365 c0 -16 2 -22 5 -12 2 9 2 23 0 30 -3 6 -5 -1 -5 -18z"/>
<path d="M1433 1270 c0 -36 2 -50 4 -32 2 17 2 47 0 65 -2 17 -4 3 -4 -33z"/>
</g>
</svg>
